# WaveFront *.obj file (generated by Cinema 4D)

v 0.000000 -0.500000 0.000000
v 0.000000 0.500000 0.000000
v 0.300000 -0.500000 0.000000
v 0.300000 0.500000 0.000000
v 0.150000 -0.500000 -0.259808
v 0.150000 0.500000 -0.259808
v -0.150000 -0.500000 -0.259808
v -0.150000 0.500000 -0.259808
v -0.300000 -0.500000 -0.000000
v -0.300000 0.500000 -0.000000
v -0.150000 -0.500000 0.259808
v -0.150000 0.500000 0.259808
v 0.150000 -0.500000 0.259808
v 0.150000 0.500000 0.259808
# 14 vertices

vn 0.000000 -1.000000 0.000000
vn 0.866025 0.000000 -0.500000
vn 0.000000 1.000000 0.000000
vn 0.000000 0.000000 -1.000000
vn -0.866025 0.000000 -0.500000
vn -0.866025 0.000000 0.500000
vn -0.000000 0.000000 1.000000
vn 0.866025 0.000000 0.500000
# 8 normals

o Cylinder
usemtl default
f 5//1 3//1 1//1
f 6//2 4//2 3//2
f 6//3 2//3 4//3
f 7//1 5//1 1//1
f 8//4 6//4 5//4
f 8//3 2//3 6//3
f 9//1 7//1 1//1
f 10//5 8//5 7//5
f 10//3 2//3 8//3
f 11//1 9//1 1//1
f 12//6 10//6 9//6
f 12//3 2//3 10//3
f 13//1 11//1 1//1
f 14//7 12//7 11//7
f 14//3 2//3 12//3
f 3//1 13//1 1//1
f 4//8 14//8 13//8
f 4//3 2//3 14//3
f 5//2 6//2 3//2
f 7//4 8//4 5//4
f 9//5 10//5 7//5
f 11//6 12//6 9//6
f 13//7 14//7 11//7
f 3//8 4//8 13//8

