# WaveFront *.obj file (generated by Cinema 4D)

v -0.030000 0.000000 0.000000
v 0.000000 0.000000 0.030000
v 0.030000 0.000000 0.000000
v 0.000000 0.000000 -0.030000
v 0.000000 0.030000 0.000000
v 0.000000 -0.030000 0.000000
v 0.000000 0.021213 0.021213
v -0.021213 0.000000 0.021213
v -0.021213 0.021213 0.000000
v 0.021213 0.021213 0.000000
v 0.021213 0.000000 0.021213
v 0.000000 0.021213 -0.021213
v 0.021213 0.000000 -0.021213
v -0.021213 0.000000 -0.021213
v -0.021213 -0.021213 0.000000
v 0.000000 -0.021213 0.021213
v 0.021213 -0.021213 0.000000
v 0.000000 -0.021213 -0.021213
# 18 vertices

vn -0.357407 0.862856 0.357407
vn -0.453112 0.630353 0.630353
vn -0.630353 0.630353 0.453112
vn -0.357407 0.357407 0.862856
vn -0.630353 0.453112 0.630353
vn -0.862856 0.357407 0.357407
vn 0.357407 0.862856 0.357407
vn 0.630353 0.630353 0.453112
vn 0.453112 0.630353 0.630353
vn 0.862856 0.357407 0.357407
vn 0.630353 0.453112 0.630353
vn 0.357407 0.357407 0.862856
vn 0.357407 0.862856 -0.357407
vn 0.453112 0.630353 -0.630353
vn 0.630353 0.630353 -0.453112
vn 0.357407 0.357407 -0.862856
vn 0.630353 0.453112 -0.630353
vn 0.862856 0.357407 -0.357407
vn -0.357407 0.862856 -0.357407
vn -0.630353 0.630353 -0.453112
vn -0.453112 0.630353 -0.630353
vn -0.862856 0.357407 -0.357407
vn -0.630353 0.453112 -0.630353
vn -0.357407 0.357407 -0.862856
vn -0.357407 -0.862856 0.357407
vn -0.630353 -0.630353 0.453112
vn -0.453112 -0.630353 0.630353
vn -0.862856 -0.357407 0.357407
vn -0.630353 -0.453112 0.630353
vn -0.357407 -0.357407 0.862856
vn 0.357407 -0.862856 0.357407
vn 0.453112 -0.630353 0.630353
vn 0.630353 -0.630353 0.453112
vn 0.357407 -0.357407 0.862856
vn 0.630353 -0.453112 0.630353
vn 0.862856 -0.357407 0.357407
vn 0.357407 -0.862856 -0.357407
vn 0.630353 -0.630353 -0.453112
vn 0.453112 -0.630353 -0.630353
vn 0.862856 -0.357407 -0.357407
vn 0.630353 -0.453112 -0.630353
vn 0.357407 -0.357407 -0.862856
vn -0.357407 -0.862856 -0.357407
vn -0.453112 -0.630353 -0.630353
vn -0.630353 -0.630353 -0.453112
vn -0.357407 -0.357407 -0.862856
vn -0.630353 -0.453112 -0.630353
vn -0.862856 -0.357407 -0.357407
# 48 normals

o Sphere.1
usemtl default
f 9//3 7//2 5//1
f 8//5 2//4 7//2
f 7//2 9//3 8//5
f 1//6 8//5 9//3
f 7//9 10//8 5//7
f 11//11 3//10 10//8
f 10//8 7//9 11//11
f 2//12 11//11 7//9
f 10//15 12//14 5//13
f 13//17 4//16 12//14
f 12//14 10//15 13//17
f 3//18 13//17 10//15
f 12//21 9//20 5//19
f 14//23 1//22 9//20
f 9//20 12//21 14//23
f 4//24 14//23 12//21
f 16//27 15//26 6//25
f 8//29 1//28 15//26
f 15//26 16//27 8//29
f 2//30 8//29 16//27
f 17//33 16//32 6//31
f 11//35 2//34 16//32
f 16//32 17//33 11//35
f 3//36 11//35 17//33
f 18//39 17//38 6//37
f 13//41 3//40 17//38
f 17//38 18//39 13//41
f 4//42 13//41 18//39
f 15//45 18//44 6//43
f 14//47 4//46 18//44
f 18//44 15//45 14//47
f 1//48 14//47 15//45

